<?xml version="1.0" encoding="utf-8"?>
<!-- Generator: Adobe Illustrator 17.1.0, SVG Export Plug-In . SVG Version: 6.00 Build 0)  -->
<!DOCTYPE svg PUBLIC "-//W3C//DTD SVG 1.1//EN" "http://www.w3.org/Graphics/SVG/1.1/DTD/svg11.dtd">
<svg version="1.1" id="Layer_1" xmlns="http://www.w3.org/2000/svg" xmlns:xlink="http://www.w3.org/1999/xlink" x="0px" y="0px"
	 viewBox="0 0 40 40" enable-background="new 0 0 40 40" xml:space="preserve">
<path fill="#FFFFFF" d="M20,0C9,0,0,8.9,0,20C0,31,9,40,20,40c11,0,20-8.9,20-20C40,8.9,31.1,0,20,0z M25.8,11.8c-1.1,0-2.3,0-2.8,0
	c-0.6,0-1.1,0.6-1.1,1c0,0.4,0,2.9,0,2.9s3.5,0,3.9,0C25.6,18,25.3,20,25.3,20h-3.5v12.5h-5.1V20h-2.5v-4.2h2.5c0,0,0-2.8,0-3.5
	c0-0.6-0.1-4.9,5.3-4.9c0.7,0,2.4,0,3.8,0C25.8,9.3,25.8,11.3,25.8,11.8z"/>
</svg>
