<?xml version="1.0" encoding="utf-8"?>
<!-- Generator: Adobe Illustrator 17.1.0, SVG Export Plug-In . SVG Version: 6.00 Build 0)  -->
<!DOCTYPE svg PUBLIC "-//W3C//DTD SVG 1.1//EN" "http://www.w3.org/Graphics/SVG/1.1/DTD/svg11.dtd">
<svg version="1.1" id="Layer_1" xmlns="http://www.w3.org/2000/svg" xmlns:xlink="http://www.w3.org/1999/xlink" x="0px" y="0px"
	 viewBox="0 0 40 40" enable-background="new 0 0 40 40" xml:space="preserve">
<path fill="#FFFFFF" d="M20,0C9,0,0,9,0,20c0,11,9,20,20,20c11,0,20-9,20-20C40,9,31,0,20,0z M29.3,12.6l-9.6,7.6l-9.6-7.6H29.3z
	 M8.9,13.7l6.7,5.3l-6.7,6.7V13.7z M9.8,27.1l7.1-7.1l2.8,2.2l0.1,0.1l0,0l0,0l0,0l3-2.4l7.2,7.2H9.8z M31,25.9l-7-7l7-5.6V25.9z"/>
</svg>
