<?xml version="1.0" encoding="utf-8"?>
<!-- Generator: Adobe Illustrator 17.1.0, SVG Export Plug-In . SVG Version: 6.00 Build 0)  -->
<!DOCTYPE svg PUBLIC "-//W3C//DTD SVG 1.1//EN" "http://www.w3.org/Graphics/SVG/1.1/DTD/svg11.dtd">
<svg version="1.1" id="Layer_1" xmlns="http://www.w3.org/2000/svg" xmlns:xlink="http://www.w3.org/1999/xlink" x="0px" y="0px"
	 viewBox="0 0 40 40" enable-background="new 0 0 40 40" xml:space="preserve">
<g>
	<path fill="#FFFFFF" d="M23.9,17.7c-1.7,0-2.4,0.9-2.8,1.6v0h0c0,0,0,0,0,0v-1.3h-3.1c0,0.9,0,9.4,0,9.4h3.1v-5.3
		c0-0.3,0-0.6,0.1-0.8c0.2-0.6,0.7-1.1,1.6-1.1c1.1,0,1.6,0.9,1.6,2.1v5h3.1V22C27.5,19.1,25.9,17.7,23.9,17.7z"/>
	<rect x="13" y="17.9" fill="#FFFFFF" width="3.1" height="9.4"/>
	<path fill="#FFFFFF" d="M14.6,13.4c-1.1,0-1.8,0.7-1.8,1.6c0,0.9,0.7,1.6,1.7,1.6h0c1.1,0,1.8-0.7,1.8-1.6
		C16.4,14.1,15.7,13.4,14.6,13.4z"/>
	<path fill="#FFFFFF" d="M20,0C9,0,0,9,0,20c0,11,9,20,20,20c11,0,20-9,20-20C40,9,31,0,20,0z M30.7,29.3c0,0.8-0.7,1.5-1.5,1.5
		H11.4c-0.8,0-1.5-0.7-1.5-1.5V11.4c0-0.8,0.7-1.5,1.5-1.5h17.7c0.8,0,1.5,0.7,1.5,1.5V29.3z"/>
</g>
</svg>
