<?xml version="1.0" encoding="utf-8"?>
<!-- Generator: Adobe Illustrator 17.1.0, SVG Export Plug-In . SVG Version: 6.00 Build 0)  -->
<!DOCTYPE svg PUBLIC "-//W3C//DTD SVG 1.1//EN" "http://www.w3.org/Graphics/SVG/1.1/DTD/svg11.dtd">
<svg version="1.1" id="Layer_1" xmlns="http://www.w3.org/2000/svg" xmlns:xlink="http://www.w3.org/1999/xlink" x="0px" y="0px"
	 viewBox="0 0 40 40" enable-background="new 0 0 40 40" xml:space="preserve">
<g>
	<path fill="#FFFFFF" d="M16,10.1c-0.8,0-1.7,0.4-2.2,1c-0.5,0.7-0.7,1.5-0.7,2.3c0,2.1,1.2,5.6,4,5.6c0.8,0,1.7-0.4,2.2-0.9
		c0.7-0.7,0.8-1.7,0.8-2.3C20,13.6,18.6,10.1,16,10.1z"/>
	<path fill="#FFFFFF" d="M17,24.2c-0.3,0-2,0.1-3.3,0.5c-0.7,0.3-2.7,1-2.7,3.3c0,2.3,2.2,3.9,5.6,3.9c3,0,4.7-1.5,4.7-3.4
		c0-1.6-1-2.5-3.5-4.2C17.5,24.2,17.3,24.2,17,24.2z"/>
	<path fill="#FFFFFF" d="M20,0C8.9,0,0,8.9,0,20c0,11,8.9,20,20,20c11,0,20-8.9,20-20C40,8.9,31,0,20,0z M22.7,14.4
		c0,2.3-1.3,3.5-2.7,4.5c-0.4,0.4-0.9,0.9-0.9,1.6c0,0.7,0.5,1.1,0.8,1.4l1.1,0.9c1.4,1.2,2.7,2.3,2.7,4.4c0,3-2.9,6-8.3,6
		c-4.6,0-6.8-2.2-6.8-4.5c0-1.1,0.6-2.8,2.4-3.9c2-1.2,4.6-1.4,6.1-1.5c-0.4-0.6-1-1.2-1-2.2c0-0.5,0.2-0.9,0.3-1.2
		c-0.4,0-0.7,0.1-1,0.1c-3.4,0-5.3-2.5-5.3-5c0-1.5,0.7-3.1,2-4.3C14.1,9.3,16.2,9,18,9h6.5l-2,1.1h-2C21.2,10.8,22.7,12,22.7,14.4z
		 M33.5,20.4h-3.2v3.4h-2.4v-3.4h-3.2v-2.3h3.2v-3.4h2.4v3.4h3.2V20.4z"/>
</g>
</svg>
