<?xml version="1.0" encoding="utf-8"?>
<!-- Generator: Adobe Illustrator 17.1.0, SVG Export Plug-In . SVG Version: 6.00 Build 0)  -->
<!DOCTYPE svg PUBLIC "-//W3C//DTD SVG 1.1//EN" "http://www.w3.org/Graphics/SVG/1.1/DTD/svg11.dtd">
<svg version="1.1" id="ArcBees_Logotype" xmlns="http://www.w3.org/2000/svg" xmlns:xlink="http://www.w3.org/1999/xlink" x="0px"
	 y="0px" viewBox="0 0 841.9 311.8" enable-background="new 0 0 841.9 311.8" xml:space="preserve">
<g id="Logo_x5F_Black" display="none">
	<g id="Typo_2_" display="inline">
		<path fill="#333333" d="M283.8,232.8l48.4-118.9h12.5l48.4,118.9h-15.7l-14.2-35.8h-49.7l-14.2,35.8H283.8z M338.4,132.3
			c-5.3,14.8-10.4,28.3-15.2,40.4l-4.4,11.2h39.4l-4.5-11.2c-4.9-12.3-9.8-25.8-14.9-40.4H338.4z"/>
		<path fill="#333333" d="M444.3,159.5h-1.1c-3.3,0-6.5,0.3-9.6,0.9s-6.1,1.5-8.8,2.7c-2.8,1.2-5.2,2.7-7.5,4.5
			c-2.2,1.8-4.1,3.9-5.6,6.3v58.8H398v-84.4h10.7l2.7,13.4h0.3c1.4-2.2,3-4.2,5-6.1c2-1.9,4.2-3.6,6.7-5c2.5-1.4,5.2-2.5,8.2-3.3
			c3-0.8,6.1-1.2,9.3-1.2c0.6,0,1.2,0,1.8,0c0.6,0,1.2,0.1,1.6,0.1V159.5z"/>
		<path fill="#333333" d="M483.5,146.1c4.1,0,8,0.4,11.7,1.3c3.7,0.9,6.9,2.1,9.6,3.6v11.5c-3.7-1.4-7.2-2.5-10.3-3.2
			c-3.1-0.7-6.3-1.1-9.6-1.1c-3.4,0-6.8,0.6-10.2,1.7c-3.4,1.1-6.4,3-9.1,5.6c-2.7,2.6-4.8,6-6.4,10.2c-1.6,4.2-2.4,9.5-2.4,15.8
			c0,4.6,0.6,8.8,1.8,12.6c1.2,3.9,3,7.2,5.4,10c2.4,2.8,5.4,5,9,6.6c3.6,1.6,7.8,2.4,12.5,2.4c3.4,0,6.9-0.4,10.4-1.1
			c3.5-0.7,6.9-1.8,10.2-3.2v11.5c-1,0.6-2.3,1.2-4,1.8c-1.6,0.6-3.4,1.1-5.4,1.6c-2,0.4-4,0.8-6.2,1.1c-2.2,0.3-4.4,0.4-6.6,0.4
			c-5.7,0-11.1-0.9-16.1-2.6c-5.1-1.7-9.5-4.4-13.3-7.9c-3.8-3.6-6.8-8.1-9-13.5c-2.2-5.5-3.3-11.9-3.3-19.4c0-5.6,0.6-10.6,1.7-15
			c1.2-4.4,2.7-8.4,4.8-11.7c2-3.4,4.4-6.2,7.1-8.6c2.7-2.4,5.6-4.3,8.6-5.8c3.1-1.5,6.2-2.6,9.5-3.3
			C477.3,146.4,480.4,146.1,483.5,146.1z"/>
		<path fill="#333333" d="M571.1,171.3c3.7,0.5,7,1.5,9.9,2.9c2.9,1.4,5.5,3.2,7.6,5.5c2.1,2.2,3.7,4.9,4.8,7.9
			c1.1,3.1,1.7,6.5,1.7,10.4c0,2.8-0.4,5.7-1.2,8.8c-0.8,3.1-2.2,6-4.1,8.9c-1.9,2.9-4.4,5.5-7.5,8c-3.1,2.4-6.9,4.4-11.5,6
			c-3.5,1.2-7.4,2-11.7,2.5c-4.3,0.5-9.4,0.7-15.4,0.7h-30.4V113.8h29.3c2.7,0,5.1,0,7.3,0.1c2.2,0.1,4.2,0.2,6.1,0.4
			c1.8,0.2,3.6,0.4,5.1,0.7c1.6,0.3,3.1,0.6,4.5,0.9c3.7,1,7,2.4,10.1,4.1c3,1.7,5.6,3.8,7.7,6.3c2.1,2.4,3.7,5.2,4.9,8.3
			c1.1,3.1,1.7,6.4,1.7,10c0,2.9-0.3,5.7-1,8.4c-0.7,2.7-1.8,5.1-3.3,7.4c-1.5,2.3-3.5,4.3-5.9,6c-2.4,1.8-5.3,3.3-8.8,4.4V171.3z
			 M549.9,165.3c2.8,0,5.3-0.1,7.4-0.4c2.1-0.3,3.9-0.7,5.6-1.2c4.4-1.5,7.7-3.8,9.7-6.9c2-3.1,3.1-6.8,3.1-11.1
			c0-4.4-1.1-8-3.2-10.8c-2.1-2.8-5.5-4.9-10-6.2c-2.3-0.7-4.9-1.1-7.8-1.4s-6.5-0.4-10.5-0.4h-16.3v38.4H549.9z M527.8,178.4v41.3
			h17.5c4.1,0,8-0.2,11.6-0.6c3.6-0.4,6.6-1,9.1-1.8c2.7-0.9,5-2,6.9-3.4c1.9-1.4,3.4-2.9,4.6-4.6c1.2-1.7,2-3.5,2.5-5.4
			c0.5-1.9,0.8-3.8,0.8-5.8c0-2.3-0.3-4.4-0.8-6.4c-0.5-2-1.4-3.8-2.6-5.3c-1.2-1.6-2.8-2.9-4.8-4.1c-2-1.2-4.5-2.1-7.4-2.8
			c-1.8-0.4-3.8-0.7-6.1-0.9c-2.3-0.2-5.1-0.3-8.5-0.3H527.8z"/>
		<path fill="#333333" d="M645.4,223c4.6,0,8.7-0.4,12.5-1.1c3.8-0.7,7.5-1.8,11.2-3.2v11.5c-3,1.5-6.8,2.7-11.2,3.5
			c-4.4,0.9-9.2,1.3-14.3,1.3c-6,0-11.7-0.8-17-2.3c-5.3-1.5-9.9-4-13.8-7.5c-3.9-3.4-6.9-7.9-9.1-13.5c-2.2-5.5-3.3-12.2-3.3-20
			c0-7.7,1.1-14.4,3.2-20c2.1-5.7,5-10.4,8.5-14.2c3.5-3.8,7.6-6.6,12.2-8.5c4.6-1.9,9.4-2.8,14.5-2.8c4.7,0,9.1,0.8,13.3,2.4
			c4.1,1.6,7.7,4,10.7,7.4c3,3.4,5.4,7.7,7.1,13.1c1.7,5.3,2.6,11.7,2.6,19.2c0,0.7,0,1.3,0,1.8c0,0.5,0,1.6-0.1,3.4h-58.3
			c0,5.4,0.8,10,2.4,13.7c1.6,3.8,3.9,6.8,6.7,9.2c2.8,2.3,6.1,4,9.9,5.1C636.9,222.5,641,223,645.4,223z M638.2,157.9
			c-3.2,0-6.1,0.6-8.9,1.9c-2.7,1.2-5.1,2.9-7.2,5.1c-2,2.1-3.7,4.6-4.9,7.5c-1.3,2.9-2,5.9-2.3,9.2H658c0-3.3-0.4-6.4-1.3-9.3
			c-0.9-2.9-2.1-5.4-3.8-7.5c-1.7-2.1-3.8-3.8-6.2-5C644.2,158.5,641.4,157.9,638.2,157.9z"/>
		<path fill="#333333" d="M723.7,223c4.6,0,8.7-0.4,12.5-1.1c3.8-0.7,7.5-1.8,11.2-3.2v11.5c-3,1.5-6.8,2.7-11.2,3.5
			c-4.4,0.9-9.2,1.3-14.3,1.3c-6,0-11.7-0.8-17-2.3c-5.3-1.5-9.9-4-13.8-7.5c-3.9-3.4-6.9-7.9-9.1-13.5c-2.2-5.5-3.3-12.2-3.3-20
			c0-7.7,1.1-14.4,3.2-20c2.1-5.7,5-10.4,8.5-14.2c3.5-3.8,7.6-6.6,12.2-8.5c4.6-1.9,9.4-2.8,14.5-2.8c4.7,0,9.1,0.8,13.3,2.4
			c4.1,1.6,7.7,4,10.7,7.4c3,3.4,5.4,7.7,7.1,13.1c1.7,5.3,2.6,11.7,2.6,19.2c0,0.7,0,1.3,0,1.8c0,0.5,0,1.6-0.1,3.4h-58.3
			c0,5.4,0.8,10,2.4,13.7c1.6,3.8,3.9,6.8,6.7,9.2c2.8,2.3,6.1,4,9.9,5.1C715.3,222.5,719.3,223,723.7,223z M716.5,157.9
			c-3.2,0-6.1,0.6-8.9,1.9c-2.7,1.2-5.1,2.9-7.2,5.1c-2,2.1-3.7,4.6-5,7.5c-1.3,2.9-2,5.9-2.3,9.2h43.2c0-3.3-0.4-6.4-1.3-9.3
			c-0.9-2.9-2.1-5.4-3.8-7.5c-1.7-2.1-3.8-3.8-6.2-5C722.6,158.5,719.7,157.9,716.5,157.9z"/>
		<path fill="#333333" d="M769.5,170.8c0,2.3,0.5,4.2,1.5,5.7c1,1.5,2.3,2.7,4,3.6c1.7,0.9,3.6,1.7,5.7,2.3c2.2,0.6,4.4,1.1,6.7,1.6
			c3.2,0.7,6.2,1.5,9,2.4c2.8,0.9,5.5,2.1,7.9,3.9c2.4,1.7,4.3,4,5.8,7c1.5,2.9,2.2,6.7,2.2,11.4c0,4.3-0.8,8-2.5,11.3
			c-1.7,3.3-4,6-7,8.3c-3,2.2-6.6,3.9-10.8,5.1c-4.2,1.2-8.8,1.7-13.9,1.7c-3.1,0-5.9-0.2-8.4-0.5c-2.5-0.3-4.7-0.7-6.7-1.2
			c-1.9-0.5-3.6-1-4.9-1.6c-1.4-0.5-2.5-1-3.4-1.5v-11.6c3.5,1.4,7,2.5,10.4,3.4c3.4,0.8,7.2,1.2,11.3,1.2c3.3,0,6.2-0.3,8.8-0.9
			c2.6-0.6,4.9-1.5,6.8-2.6c1.9-1.2,3.3-2.6,4.4-4.4c1-1.7,1.5-3.8,1.5-6.1c0-2.4-0.5-4.3-1.4-5.9c-0.9-1.5-2.2-2.8-3.8-3.8
			c-1.6-1-3.4-1.8-5.5-2.5c-2.1-0.7-4.2-1.2-6.5-1.8c-3-0.7-6-1.4-9-2.3c-3.1-0.9-5.8-2.1-8.3-3.7c-2.5-1.6-4.5-3.8-6.1-6.5
			c-1.5-2.8-2.3-6.3-2.3-10.6c0-4.4,0.8-8.3,2.4-11.6c1.6-3.3,3.8-6,6.5-8.1c2.7-2.1,5.9-3.7,9.5-4.8c3.6-1.1,7.4-1.6,11.5-1.6
			c4.7,0,9,0.4,13,1.3c4,0.9,7.6,2,10.9,3.4v11.7c-3.5-1.4-7-2.5-10.5-3.3c-3.6-0.9-7.2-1.3-11-1.4c-3.2,0-5.9,0.3-8.2,1
			c-2.3,0.7-4.1,1.6-5.6,2.7c-1.4,1.2-2.5,2.5-3.2,4.1C769.8,167.2,769.5,168.9,769.5,170.8z"/>
	</g>
	<polygon display="inline" fill="#333333" points="240.3,194.6 263.8,231.8 207.7,231.8 	"/>
	<path display="inline" fill="#333333" d="M254.1,154.8c-1.5,56.9-52.9,101.8-115,100.2c-1.7,0-3.4-0.1-5.1-0.2
		c24.3-6.1,50.6-20.8,73.1-42.6c15.7-15.2,27.6-31.8,35.1-48.2c-4-7.4-9.3-14.6-15.6-21.5c-7.1,19-20.2,38.9-38.7,56.7
		c-29.2,28.2-59.8,44.4-89,47.9c-7.6-2.9-14.8-6.6-21.5-10.9c28-3.4,58-21.1,85.5-47.8c21.2-20.6,35.4-43.8,41.5-65.4
		c-8.9-6.4-18.8-12.3-29.6-17.5c-5.9,17.7-16.4,36.2-31.3,53.4c-27.4,31.5-58,51.5-87.3,59.4c-4.3-4.7-8.2-9.7-11.6-15.1
		c25.4-7.1,50.9-27.6,73-53.1c15.3-17.6,25.9-36.6,31.7-54.7c-12.1-3.9-24.2-6.6-35.9-8.1c-4.1,11.2-9.8,22.5-17.1,33.6
		c-17.3,26.4-40.9,42.8-64,53.8h0c-1.8-7.1-2.8-14.5-2.8-22.1v0c15.3-8.6,28.6-20,39.9-37.3C75.9,105.5,81,95.7,85,85.9
		c-12.3,0.4-23.8,2.2-34.2,5.3c20.9-26.5,55.3-43.4,93.8-42.4C206.5,50.4,255.6,97.8,254.1,154.8z"/>
</g>
<g id="Logo_x5F_White" display="none">
	<g id="Typo" display="inline">
		<path fill="#FFFFFF" d="M283.8,232.8l48.4-118.9h12.5l48.4,118.9h-15.7l-14.2-35.8h-49.7l-14.2,35.8H283.8z M338.4,132.3
			c-5.3,14.8-10.4,28.3-15.2,40.4l-4.4,11.2h39.4l-4.5-11.2c-4.9-12.3-9.8-25.8-14.9-40.4H338.4z"/>
		<path fill="#FFFFFF" d="M444.3,159.5h-1.1c-3.3,0-6.5,0.3-9.6,0.9s-6.1,1.5-8.8,2.7c-2.8,1.2-5.2,2.7-7.5,4.5
			c-2.2,1.8-4.1,3.9-5.6,6.3v58.8H398v-84.4h10.7l2.7,13.4h0.3c1.4-2.2,3-4.2,5-6.1c2-1.9,4.2-3.6,6.7-5c2.5-1.4,5.2-2.5,8.2-3.3
			c3-0.8,6.1-1.2,9.3-1.2c0.6,0,1.2,0,1.8,0c0.6,0,1.2,0.1,1.6,0.1V159.5z"/>
		<path fill="#FFFFFF" d="M483.5,146.1c4.1,0,8,0.4,11.7,1.3c3.7,0.9,6.9,2.1,9.6,3.6v11.5c-3.7-1.4-7.2-2.5-10.3-3.2
			c-3.1-0.7-6.3-1.1-9.6-1.1c-3.4,0-6.8,0.6-10.2,1.7c-3.4,1.1-6.4,3-9.1,5.6c-2.7,2.6-4.8,6-6.4,10.2c-1.6,4.2-2.4,9.5-2.4,15.8
			c0,4.6,0.6,8.8,1.8,12.6c1.2,3.9,3,7.2,5.4,10c2.4,2.8,5.4,5,9,6.6c3.6,1.6,7.8,2.4,12.5,2.4c3.4,0,6.9-0.4,10.4-1.1
			c3.5-0.7,6.9-1.8,10.2-3.2v11.5c-1,0.6-2.3,1.2-4,1.8c-1.6,0.6-3.4,1.1-5.4,1.6c-2,0.4-4,0.8-6.2,1.1c-2.2,0.3-4.4,0.4-6.6,0.4
			c-5.7,0-11.1-0.9-16.1-2.6c-5.1-1.7-9.5-4.4-13.3-7.9c-3.8-3.6-6.8-8.1-9-13.5c-2.2-5.5-3.3-11.9-3.3-19.4c0-5.6,0.6-10.6,1.7-15
			c1.2-4.4,2.7-8.4,4.8-11.7c2-3.4,4.4-6.2,7.1-8.6c2.7-2.4,5.6-4.3,8.6-5.8c3.1-1.5,6.2-2.6,9.5-3.3
			C477.3,146.4,480.4,146.1,483.5,146.1z"/>
		<path fill="#FFFFFF" d="M571.1,171.3c3.7,0.5,7,1.5,9.9,2.9c2.9,1.4,5.5,3.2,7.6,5.5c2.1,2.2,3.7,4.9,4.8,7.9
			c1.1,3.1,1.7,6.5,1.7,10.4c0,2.8-0.4,5.7-1.2,8.8c-0.8,3.1-2.2,6-4.1,8.9c-1.9,2.9-4.4,5.5-7.5,8c-3.1,2.4-6.9,4.4-11.5,6
			c-3.5,1.2-7.4,2-11.7,2.5c-4.3,0.5-9.4,0.7-15.4,0.7h-30.4V113.8h29.3c2.7,0,5.1,0,7.3,0.1c2.2,0.1,4.2,0.2,6.1,0.4
			c1.8,0.2,3.6,0.4,5.1,0.7c1.6,0.3,3.1,0.6,4.5,0.9c3.7,1,7,2.4,10.1,4.1c3,1.7,5.6,3.8,7.7,6.3c2.1,2.4,3.7,5.2,4.9,8.3
			c1.1,3.1,1.7,6.4,1.7,10c0,2.9-0.3,5.7-1,8.4c-0.7,2.7-1.8,5.1-3.3,7.4c-1.5,2.3-3.5,4.3-5.9,6c-2.4,1.8-5.3,3.3-8.8,4.4V171.3z
			 M549.9,165.3c2.8,0,5.3-0.1,7.4-0.4c2.1-0.3,3.9-0.7,5.6-1.2c4.4-1.5,7.7-3.8,9.7-6.9c2-3.1,3.1-6.8,3.1-11.1
			c0-4.4-1.1-8-3.2-10.8c-2.1-2.8-5.5-4.9-10-6.2c-2.3-0.7-4.9-1.1-7.8-1.4s-6.5-0.4-10.5-0.4h-16.3v38.4H549.9z M527.8,178.4v41.3
			h17.5c4.1,0,8-0.2,11.6-0.6c3.6-0.4,6.6-1,9.1-1.8c2.7-0.9,5-2,6.9-3.4c1.9-1.4,3.4-2.9,4.6-4.6c1.2-1.7,2-3.5,2.5-5.4
			c0.5-1.9,0.8-3.8,0.8-5.8c0-2.3-0.3-4.4-0.8-6.4c-0.5-2-1.4-3.8-2.6-5.3c-1.2-1.6-2.8-2.9-4.8-4.1c-2-1.2-4.5-2.1-7.4-2.8
			c-1.8-0.4-3.8-0.7-6.1-0.9c-2.3-0.2-5.1-0.3-8.5-0.3H527.8z"/>
		<path fill="#FFFFFF" d="M645.4,223c4.6,0,8.7-0.4,12.5-1.1c3.8-0.7,7.5-1.8,11.2-3.2v11.5c-3,1.5-6.8,2.7-11.2,3.5
			c-4.4,0.9-9.2,1.3-14.3,1.3c-6,0-11.7-0.8-17-2.3c-5.3-1.5-9.9-4-13.8-7.5c-3.9-3.4-6.9-7.9-9.1-13.5c-2.2-5.5-3.3-12.2-3.3-20
			c0-7.7,1.1-14.4,3.2-20c2.1-5.7,5-10.4,8.5-14.2c3.5-3.8,7.6-6.6,12.2-8.5c4.6-1.9,9.4-2.8,14.5-2.8c4.7,0,9.1,0.8,13.3,2.4
			c4.1,1.6,7.7,4,10.7,7.4c3,3.4,5.4,7.7,7.1,13.1c1.7,5.3,2.6,11.7,2.6,19.2c0,0.7,0,1.3,0,1.8c0,0.5,0,1.6-0.1,3.4h-58.3
			c0,5.4,0.8,10,2.4,13.7c1.6,3.8,3.9,6.8,6.7,9.2c2.8,2.3,6.1,4,9.9,5.1C636.9,222.5,641,223,645.4,223z M638.2,157.9
			c-3.2,0-6.1,0.6-8.9,1.9c-2.7,1.2-5.1,2.9-7.2,5.1c-2,2.1-3.7,4.6-4.9,7.5c-1.3,2.9-2,5.9-2.3,9.2H658c0-3.3-0.4-6.4-1.3-9.3
			c-0.9-2.9-2.1-5.4-3.8-7.5c-1.7-2.1-3.8-3.8-6.2-5C644.2,158.5,641.4,157.9,638.2,157.9z"/>
		<path fill="#FFFFFF" d="M723.7,223c4.6,0,8.7-0.4,12.5-1.1c3.8-0.7,7.5-1.8,11.2-3.2v11.5c-3,1.5-6.8,2.7-11.2,3.5
			c-4.4,0.9-9.2,1.3-14.3,1.3c-6,0-11.7-0.8-17-2.3c-5.3-1.5-9.9-4-13.8-7.5c-3.9-3.4-6.9-7.9-9.1-13.5c-2.2-5.5-3.3-12.2-3.3-20
			c0-7.7,1.1-14.4,3.2-20c2.1-5.7,5-10.4,8.5-14.2c3.5-3.8,7.6-6.6,12.2-8.5c4.6-1.9,9.4-2.8,14.5-2.8c4.7,0,9.1,0.8,13.3,2.4
			c4.1,1.6,7.7,4,10.7,7.4c3,3.4,5.4,7.7,7.1,13.1c1.7,5.3,2.6,11.7,2.6,19.2c0,0.7,0,1.3,0,1.8c0,0.5,0,1.6-0.1,3.4h-58.3
			c0,5.4,0.8,10,2.4,13.7c1.6,3.8,3.9,6.8,6.7,9.2c2.8,2.3,6.1,4,9.9,5.1C715.3,222.5,719.3,223,723.7,223z M716.5,157.9
			c-3.2,0-6.1,0.6-8.9,1.9c-2.7,1.2-5.1,2.9-7.2,5.1c-2,2.1-3.7,4.6-5,7.5c-1.3,2.9-2,5.9-2.3,9.2h43.2c0-3.3-0.4-6.4-1.3-9.3
			c-0.9-2.9-2.1-5.4-3.8-7.5c-1.7-2.1-3.8-3.8-6.2-5C722.6,158.5,719.7,157.9,716.5,157.9z"/>
		<path fill="#FFFFFF" d="M769.5,170.8c0,2.3,0.5,4.2,1.5,5.7c1,1.5,2.3,2.7,4,3.6c1.7,0.9,3.6,1.7,5.7,2.3c2.2,0.6,4.4,1.1,6.7,1.6
			c3.2,0.7,6.2,1.5,9,2.4c2.8,0.9,5.5,2.1,7.9,3.9c2.4,1.7,4.3,4,5.8,7c1.5,2.9,2.2,6.7,2.2,11.4c0,4.3-0.8,8-2.5,11.3
			c-1.7,3.3-4,6-7,8.3c-3,2.2-6.6,3.9-10.8,5.1c-4.2,1.2-8.8,1.7-13.9,1.7c-3.1,0-5.9-0.2-8.4-0.5c-2.5-0.3-4.7-0.7-6.7-1.2
			c-1.9-0.5-3.6-1-4.9-1.6c-1.4-0.5-2.5-1-3.4-1.5v-11.6c3.5,1.4,7,2.5,10.4,3.4c3.4,0.8,7.2,1.2,11.3,1.2c3.3,0,6.2-0.3,8.8-0.9
			c2.6-0.6,4.9-1.5,6.8-2.6c1.9-1.2,3.3-2.6,4.4-4.4c1-1.7,1.5-3.8,1.5-6.1c0-2.4-0.5-4.3-1.4-5.9c-0.9-1.5-2.2-2.8-3.8-3.8
			c-1.6-1-3.4-1.8-5.5-2.5c-2.1-0.7-4.2-1.2-6.5-1.8c-3-0.7-6-1.4-9-2.3c-3.1-0.9-5.8-2.1-8.3-3.7c-2.5-1.6-4.5-3.8-6.1-6.5
			c-1.5-2.8-2.3-6.3-2.3-10.6c0-4.4,0.8-8.3,2.4-11.6c1.6-3.3,3.8-6,6.5-8.1c2.7-2.1,5.9-3.7,9.5-4.8c3.6-1.1,7.4-1.6,11.5-1.6
			c4.7,0,9,0.4,13,1.3c4,0.9,7.6,2,10.9,3.4v11.7c-3.5-1.4-7-2.5-10.5-3.3c-3.6-0.9-7.2-1.3-11-1.4c-3.2,0-5.9,0.3-8.2,1
			c-2.3,0.7-4.1,1.6-5.6,2.7c-1.4,1.2-2.5,2.5-3.2,4.1C769.8,167.2,769.5,168.9,769.5,170.8z"/>
	</g>
	<polygon display="inline" fill="#FFFFFF" points="240.3,194.6 263.8,231.8 207.7,231.8 	"/>
	<path display="inline" fill="#FFFFFF" d="M254.1,154.8c-1.5,56.9-52.9,101.8-115,100.2c-1.7,0-3.4-0.1-5.1-0.2
		c24.3-6.1,50.6-20.8,73.1-42.6c15.7-15.2,27.6-31.8,35.1-48.2c-4-7.4-9.3-14.6-15.6-21.5c-7.1,19-20.2,38.9-38.7,56.7
		c-29.2,28.2-59.8,44.4-89,47.9c-7.6-2.9-14.8-6.6-21.5-10.9c28-3.4,58-21.1,85.5-47.8c21.2-20.6,35.4-43.8,41.5-65.4
		c-8.9-6.4-18.8-12.3-29.6-17.5c-5.9,17.7-16.4,36.2-31.3,53.4c-27.4,31.5-58,51.5-87.3,59.4c-4.3-4.7-8.2-9.7-11.6-15.1
		c25.4-7.1,50.9-27.6,73-53.1c15.3-17.6,25.9-36.6,31.7-54.7c-12.1-3.9-24.2-6.6-35.9-8.1c-4.1,11.2-9.8,22.5-17.1,33.6
		c-17.3,26.4-40.9,42.8-64,53.8h0c-1.8-7.1-2.8-14.5-2.8-22.1v0c15.3-8.6,28.6-20,39.9-37.3C75.9,105.5,81,95.7,85,85.9
		c-12.3,0.4-23.8,2.2-34.2,5.3c20.9-26.5,55.3-43.4,93.8-42.4C206.5,50.4,255.6,97.8,254.1,154.8z"/>
</g>
<g id="Logo_x5F_NORM">
	<g id="Typo_1_">
		<path fill="#333333" d="M283.8,232.8l48.4-118.9h12.5l48.4,118.9h-15.7l-14.2-35.8h-49.7l-14.2,35.8H283.8z M338.4,132.3
			c-5.3,14.8-10.4,28.3-15.2,40.4l-4.4,11.2h39.4l-4.5-11.2c-4.9-12.3-9.8-25.8-14.9-40.4H338.4z"/>
		<path fill="#333333" d="M444.3,159.5h-1.1c-3.3,0-6.5,0.3-9.6,0.9s-6.1,1.5-8.8,2.7c-2.8,1.2-5.2,2.7-7.5,4.5
			c-2.2,1.8-4.1,3.9-5.6,6.3v58.8H398v-84.4h10.7l2.7,13.4h0.3c1.4-2.2,3-4.2,5-6.1c2-1.9,4.2-3.6,6.7-5c2.5-1.4,5.2-2.5,8.2-3.3
			c3-0.8,6.1-1.2,9.3-1.2c0.6,0,1.2,0,1.8,0c0.6,0,1.2,0.1,1.6,0.1V159.5z"/>
		<path fill="#333333" d="M483.5,146.1c4.1,0,8,0.4,11.7,1.3c3.7,0.9,6.9,2.1,9.6,3.6v11.5c-3.7-1.4-7.2-2.5-10.3-3.2
			c-3.1-0.7-6.3-1.1-9.6-1.1c-3.4,0-6.8,0.6-10.2,1.7c-3.4,1.1-6.4,3-9.1,5.6c-2.7,2.6-4.8,6-6.4,10.2c-1.6,4.2-2.4,9.5-2.4,15.8
			c0,4.6,0.6,8.8,1.8,12.6c1.2,3.9,3,7.2,5.4,10c2.4,2.8,5.4,5,9,6.6c3.6,1.6,7.8,2.4,12.5,2.4c3.4,0,6.9-0.4,10.4-1.1
			c3.5-0.7,6.9-1.8,10.2-3.2v11.5c-1,0.6-2.3,1.2-4,1.8c-1.6,0.6-3.4,1.1-5.4,1.6c-2,0.4-4,0.8-6.2,1.1c-2.2,0.3-4.4,0.4-6.6,0.4
			c-5.7,0-11.1-0.9-16.1-2.6c-5.1-1.7-9.5-4.4-13.3-7.9c-3.8-3.6-6.8-8.1-9-13.5c-2.2-5.5-3.3-11.9-3.3-19.4c0-5.6,0.6-10.6,1.7-15
			c1.2-4.4,2.7-8.4,4.8-11.7c2-3.4,4.4-6.2,7.1-8.6c2.7-2.4,5.6-4.3,8.6-5.8c3.1-1.5,6.2-2.6,9.5-3.3
			C477.3,146.4,480.4,146.1,483.5,146.1z"/>
		<path fill="#333333" d="M571.1,171.3c3.7,0.5,7,1.5,9.9,2.9c2.9,1.4,5.5,3.2,7.6,5.5c2.1,2.2,3.7,4.9,4.8,7.9
			c1.1,3.1,1.7,6.5,1.7,10.4c0,2.8-0.4,5.7-1.2,8.8c-0.8,3.1-2.2,6-4.1,8.9c-1.9,2.9-4.4,5.5-7.5,8c-3.1,2.4-6.9,4.4-11.5,6
			c-3.5,1.2-7.4,2-11.7,2.5c-4.3,0.5-9.4,0.7-15.4,0.7h-30.4V113.8h29.3c2.7,0,5.1,0,7.3,0.1c2.2,0.1,4.2,0.2,6.1,0.4
			c1.8,0.2,3.6,0.4,5.1,0.7c1.6,0.3,3.1,0.6,4.5,0.9c3.7,1,7,2.4,10.1,4.1c3,1.7,5.6,3.8,7.7,6.3c2.1,2.4,3.7,5.2,4.9,8.3
			c1.1,3.1,1.7,6.4,1.7,10c0,2.9-0.3,5.7-1,8.4c-0.7,2.7-1.8,5.1-3.3,7.4c-1.5,2.3-3.5,4.3-5.9,6c-2.4,1.8-5.3,3.3-8.8,4.4V171.3z
			 M549.9,165.3c2.8,0,5.3-0.1,7.4-0.4c2.1-0.3,3.9-0.7,5.6-1.2c4.4-1.5,7.7-3.8,9.7-6.9c2-3.1,3.1-6.8,3.1-11.1
			c0-4.4-1.1-8-3.2-10.8c-2.1-2.8-5.5-4.9-10-6.2c-2.3-0.7-4.9-1.1-7.8-1.4s-6.5-0.4-10.5-0.4h-16.3v38.4H549.9z M527.8,178.4v41.3
			h17.5c4.1,0,8-0.2,11.6-0.6c3.6-0.4,6.6-1,9.1-1.8c2.7-0.9,5-2,6.9-3.4c1.9-1.4,3.4-2.9,4.6-4.6c1.2-1.7,2-3.5,2.5-5.4
			c0.5-1.9,0.8-3.8,0.8-5.8c0-2.3-0.3-4.4-0.8-6.4c-0.5-2-1.4-3.8-2.6-5.3c-1.2-1.6-2.8-2.9-4.8-4.1c-2-1.2-4.5-2.1-7.4-2.8
			c-1.8-0.4-3.8-0.7-6.1-0.9c-2.3-0.2-5.1-0.3-8.5-0.3H527.8z"/>
		<path fill="#333333" d="M645.4,223c4.6,0,8.7-0.4,12.5-1.1c3.8-0.7,7.5-1.8,11.2-3.2v11.5c-3,1.5-6.8,2.7-11.2,3.5
			c-4.4,0.9-9.2,1.3-14.3,1.3c-6,0-11.7-0.8-17-2.3c-5.3-1.5-9.9-4-13.8-7.5c-3.9-3.4-6.9-7.9-9.1-13.5c-2.2-5.5-3.3-12.2-3.3-20
			c0-7.7,1.1-14.4,3.2-20c2.1-5.7,5-10.4,8.5-14.2c3.5-3.8,7.6-6.6,12.2-8.5c4.6-1.9,9.4-2.8,14.5-2.8c4.7,0,9.1,0.8,13.3,2.4
			c4.1,1.6,7.7,4,10.7,7.4c3,3.4,5.4,7.7,7.1,13.1c1.7,5.3,2.6,11.7,2.6,19.2c0,0.7,0,1.3,0,1.8c0,0.5,0,1.6-0.1,3.4h-58.3
			c0,5.4,0.8,10,2.4,13.7c1.6,3.8,3.9,6.8,6.7,9.2c2.8,2.3,6.1,4,9.9,5.1C636.9,222.5,641,223,645.4,223z M638.2,157.9
			c-3.2,0-6.1,0.6-8.9,1.9c-2.7,1.2-5.1,2.9-7.2,5.1c-2,2.1-3.7,4.6-4.9,7.5c-1.3,2.9-2,5.9-2.3,9.2H658c0-3.3-0.4-6.4-1.3-9.3
			c-0.9-2.9-2.1-5.4-3.8-7.5c-1.7-2.1-3.8-3.8-6.2-5C644.2,158.5,641.4,157.9,638.2,157.9z"/>
		<path fill="#333333" d="M723.7,223c4.6,0,8.7-0.4,12.5-1.1c3.8-0.7,7.5-1.8,11.2-3.2v11.5c-3,1.5-6.8,2.7-11.2,3.5
			c-4.4,0.9-9.2,1.3-14.3,1.3c-6,0-11.7-0.8-17-2.3c-5.3-1.5-9.9-4-13.8-7.5c-3.9-3.4-6.9-7.9-9.1-13.5c-2.2-5.5-3.3-12.2-3.3-20
			c0-7.7,1.1-14.4,3.2-20c2.1-5.7,5-10.4,8.5-14.2c3.5-3.8,7.6-6.6,12.2-8.5c4.6-1.9,9.4-2.8,14.5-2.8c4.7,0,9.1,0.8,13.3,2.4
			c4.1,1.6,7.7,4,10.7,7.4c3,3.4,5.4,7.7,7.1,13.1c1.7,5.3,2.6,11.7,2.6,19.2c0,0.7,0,1.3,0,1.8c0,0.5,0,1.6-0.1,3.4h-58.3
			c0,5.4,0.8,10,2.4,13.7c1.6,3.8,3.9,6.8,6.7,9.2c2.8,2.3,6.1,4,9.9,5.1C715.3,222.5,719.3,223,723.7,223z M716.5,157.9
			c-3.2,0-6.1,0.6-8.9,1.9c-2.7,1.2-5.1,2.9-7.2,5.1c-2,2.1-3.7,4.6-5,7.5c-1.3,2.9-2,5.9-2.3,9.2h43.2c0-3.3-0.4-6.4-1.3-9.3
			c-0.9-2.9-2.1-5.4-3.8-7.5c-1.7-2.1-3.8-3.8-6.2-5C722.6,158.5,719.7,157.9,716.5,157.9z"/>
		<path fill="#333333" d="M769.5,170.8c0,2.3,0.5,4.2,1.5,5.7c1,1.5,2.3,2.7,4,3.6c1.7,0.9,3.6,1.7,5.7,2.3c2.2,0.6,4.4,1.1,6.7,1.6
			c3.2,0.7,6.2,1.5,9,2.4c2.8,0.9,5.5,2.1,7.9,3.9c2.4,1.7,4.3,4,5.8,7c1.5,2.9,2.2,6.7,2.2,11.4c0,4.3-0.8,8-2.5,11.3
			c-1.7,3.3-4,6-7,8.3c-3,2.2-6.6,3.9-10.8,5.1c-4.2,1.2-8.8,1.7-13.9,1.7c-3.1,0-5.9-0.2-8.4-0.5c-2.5-0.3-4.7-0.7-6.7-1.2
			c-1.9-0.5-3.6-1-4.9-1.6c-1.4-0.5-2.5-1-3.4-1.5v-11.6c3.5,1.4,7,2.5,10.4,3.4c3.4,0.8,7.2,1.2,11.3,1.2c3.3,0,6.2-0.3,8.8-0.9
			c2.6-0.6,4.9-1.5,6.8-2.6c1.9-1.2,3.3-2.6,4.4-4.4c1-1.7,1.5-3.8,1.5-6.1c0-2.4-0.5-4.3-1.4-5.9c-0.9-1.5-2.2-2.8-3.8-3.8
			c-1.6-1-3.4-1.8-5.5-2.5c-2.1-0.7-4.2-1.2-6.5-1.8c-3-0.7-6-1.4-9-2.3c-3.1-0.9-5.8-2.1-8.3-3.7c-2.5-1.6-4.5-3.8-6.1-6.5
			c-1.5-2.8-2.3-6.3-2.3-10.6c0-4.4,0.8-8.3,2.4-11.6c1.6-3.3,3.8-6,6.5-8.1c2.7-2.1,5.9-3.7,9.5-4.8c3.6-1.1,7.4-1.6,11.5-1.6
			c4.7,0,9,0.4,13,1.3c4,0.9,7.6,2,10.9,3.4v11.7c-3.5-1.4-7-2.5-10.5-3.3c-3.6-0.9-7.2-1.3-11-1.4c-3.2,0-5.9,0.3-8.2,1
			c-2.3,0.7-4.1,1.6-5.6,2.7c-1.4,1.2-2.5,2.5-3.2,4.1C769.8,167.2,769.5,168.9,769.5,170.8z"/>
	</g>
	<path fill="#333333" d="M254.5,155.1c-1.5,56.9-53,101.8-115,100.2c-62-1.6-111.1-49.1-109.6-106c1.5-56.9,53-101.8,115-100.2
		C206.9,50.7,256,98.2,254.5,155.1z"/>
	<polygon fill="#333333" points="240.7,194.9 264.2,232.1 208,232.1 	"/>
	<g>
		<path fill="#FFFFFF" d="M118.1,150.4c15.3-17.6,25.9-36.6,31.7-54.7c-12.1-3.9-24.2-6.6-35.9-8.1c-4.1,11.2-9.8,22.5-17.1,33.6
			c-17.3,26.4-40.9,42.8-64,53.8c2.1,10.2,6.2,19.9,12.3,28.5C70.5,196.4,95.9,175.9,118.1,150.4z"/>
		<path fill="#FFFFFF" d="M163.3,188.6c21.2-20.6,35.4-43.8,41.5-65.4c-8.9-6.4-18.8-12.3-29.6-17.5c-5.9,17.7-16.4,36.2-31.3,53.4
			c-27.3,31.5-58,51.4-87.3,59.4c6.4,8.1,18,15.9,21.2,17.8C105.8,233,135.8,215.3,163.3,188.6z"/>
		<path fill="#FFFFFF" d="M69.9,115.5c6.3-9.7,11.5-19.5,15.5-29.3c-12.3,0.4-23.8,2.2-34.2,5.3c-12.8,16.3-20.6,36.1-21.2,57.8
			c-0.1,3,0.1,0.8,0,3.6C45.2,144.3,58.5,132.9,69.9,115.5z"/>
		<path fill="#FFFFFF" d="M207.5,212.5c15.7-15.2,27.5-31.9,35.1-48.2c-4-7.4-9.3-14.6-15.6-21.5c-7.1,19-20.2,38.9-38.7,56.7
			c-29.2,28.3-59.9,44.5-89.2,47.9c12.3,5.4,20.9,6.7,35.3,7.7C158.7,248.9,185,234.3,207.5,212.5z"/>
	</g>
</g>
</svg>
